<?xml version="1.0" encoding="iso-8859-1"?>
<!-- Generator: Adobe Illustrator 19.0.0, SVG Export Plug-In . SVG Version: 6.00 Build 0)  -->
<svg version="1.1" id="Layer_1" xmlns="http://www.w3.org/2000/svg" xmlns:xlink="http://www.w3.org/1999/xlink" x="0px" y="0px"
	 viewBox="0 0 512 512" style="enable-background:new 0 0 512 512;" xml:space="preserve">
<path style="fill:#95D5A7;" d="M512,414.476c0,20.197-16.374,36.571-36.571,36.571H36.571C16.374,451.048,0,434.673,0,414.476
	V97.524c0-20.197,16.374-36.571,36.571-36.571h438.857c20.197,0,36.571,16.374,36.571,36.571V414.476z"/>
<path style="fill:#80CB93;" d="M475.429,60.952H256v390.095h219.429c20.197,0,36.571-16.374,36.571-36.571V97.524
	C512,77.327,495.626,60.952,475.429,60.952z"/>
<circle style="fill:#F8F8F9;" cx="256" cy="304.762" r="73.143"/>
<path style="fill:#EDEDED;" d="M256,231.619h-0.001v146.286H256c40.397,0,73.143-32.746,73.143-73.143S296.397,231.619,256,231.619z
	"/>
<path style="fill:#88888F;" d="M438.857,128H156.264c-4.296-3.781-9.913-6.095-16.073-6.095c-6.16,0-11.776,2.314-16.074,6.095
	H73.143v36.571h50.976c4.295,3.779,9.91,6.093,16.066,6.095h0.006c5.989,0,11.635-2.167,16.087-6.095h282.58V128z"/>
<rect x="256" y="128" style="fill:#797781;" width="182.857" height="36.571"/>
<polygon style="fill:#88888F;" points="238.933,272.255 238.933,337.269 287.695,304.762 "/>
<rect x="390.095" y="286.476" style="fill:#EDEDED;" width="60.952" height="36.571"/>
<rect x="60.952" y="286.476" style="fill:#F8F8F9;" width="60.952" height="36.571"/>
<g>
</g>
<g>
</g>
<g>
</g>
<g>
</g>
<g>
</g>
<g>
</g>
<g>
</g>
<g>
</g>
<g>
</g>
<g>
</g>
<g>
</g>
<g>
</g>
<g>
</g>
<g>
</g>
<g>
</g>
</svg>
